<svg xmlns="http://www.w3.org/2000/svg" width="169" height="24" viewBox="0 0 169 24">
    <g fill="none" fill-rule="nonzero">
        <path fill="#353535" d="M6.906 18.1H.051v-.995h.07c.254 0 .507-.018.759-.058.22-.03.43-.11.615-.23.183-.132.327-.31.417-.515.116-.283.17-.587.157-.891V8.026a1.908 1.908 0 0 0-.157-.838 1.206 1.206 0 0 0-.424-.496c-.188-.119-.4-.198-.62-.23a4.642 4.642 0 0 0-.748-.058H.05V5.4h3.653l.463 2.347h.116c.154-.355.312-.69.474-1.002a3.3 3.3 0 0 1 .597-.821c.25-.244.548-.434.875-.556.42-.147.865-.216 1.31-.203.866 0 1.51.153 1.93.461.416.288.654.768.632 1.272.004.236-.038.471-.122.692a1.33 1.33 0 0 1-.389.538 1.854 1.854 0 0 1-.694.346 3.7 3.7 0 0 1-1.021.122c0-.655-.093-1.128-.278-1.417-.185-.289-.51-.434-.974-.434a1.324 1.324 0 0 0-.79.25c-.243.178-.45.402-.608.66a4.342 4.342 0 0 0-.44.941c-.12.358-.217.723-.29 1.094-.072.37-.125.742-.157 1.117-.03.37-.046.706-.046 1.006v3.725c-.011.287.042.574.157.837.094.195.242.358.426.471.19.113.401.186.62.215.248.036.498.053.748.053h.662l.002.985zM22.971 15.52c-.011.287.043.573.158.837.091.198.238.364.423.48.19.112.401.185.62.215.248.035.498.053.748.053h.07v.994h-3.77l-.313-1.92h-.116a4.309 4.309 0 0 1-.794 1.087c-.53.52-1.208.862-1.942.979-.368.059-.74.088-1.113.087a4.874 4.874 0 0 1-1.67-.265 2.956 2.956 0 0 1-1.23-.833 3.783 3.783 0 0 1-.76-1.445 7.406 7.406 0 0 1-.26-2.093V8.015a1.908 1.908 0 0 0-.158-.838 1.206 1.206 0 0 0-.426-.485c-.188-.119-.4-.198-.62-.23a4.642 4.642 0 0 0-.748-.058H11V5.4h4.257v8.176a6.98 6.98 0 0 0 .123 1.385c.066.362.203.708.405 1.017.19.279.456.497.766.63.381.155.79.228 1.201.215.466.013.929-.081 1.352-.277.368-.18.686-.448.926-.78.256-.364.44-.775.539-1.21.12-.511.179-1.036.174-1.561V8.107a2.168 2.168 0 0 0-.158-.895 1.238 1.238 0 0 0-.416-.522 1.498 1.498 0 0 0-.616-.23 4.714 4.714 0 0 0-.76-.058h-.069V5.4h4.245l.002 10.12zM31.903 6.348a2.722 2.722 0 0 0-1.109.192c-.266.114-.496.3-.662.538a2.041 2.041 0 0 0-.319.821 6.11 6.11 0 0 0-.08 1.03 2.768 2.768 0 0 1-1.496-.337c-.344-.224-.516-.608-.516-1.154a1.633 1.633 0 0 1 .335-1.041c.25-.3.567-.538.926-.692a5.25 5.25 0 0 1 1.363-.4c.55-.087 1.104-.13 1.66-.127.64-.01 1.28.063 1.902.215.501.12.966.357 1.357.692.377.346.658.782.817 1.267a5.85 5.85 0 0 1 .257 1.911v6.14c-.006.277.02.553.08.822.042.192.13.371.255.522a.938.938 0 0 0 .463.277c.221.058.45.085.678.08h.07v.995h-3.208l-.37-2.035h-.197c-.247.332-.487.64-.72.923-.224.27-.482.511-.766.718a3.33 3.33 0 0 1-.944.461c-.413.12-.841.177-1.271.169a4.625 4.625 0 0 1-1.467-.231 3.092 3.092 0 0 1-1.172-.692 3.214 3.214 0 0 1-.77-1.18 4.603 4.603 0 0 1-.278-1.682c0-1.257.448-2.19 1.345-2.8.896-.608 2.253-.94 4.07-.994l1.973-.07V9.264a9.179 9.179 0 0 0-.07-1.175 2.377 2.377 0 0 0-.3-.923 1.556 1.556 0 0 0-.667-.602 2.666 2.666 0 0 0-1.169-.215zm-2.877 8.308c0 .74.154 1.293.463 1.66.309.366.794.549 1.456.549.446.006.889-.072 1.305-.231.377-.145.717-.37.998-.66.282-.298.498-.653.632-1.04.155-.439.234-.9.231-1.365v-1.92l-1.52.07a7.15 7.15 0 0 0-1.688.249 2.91 2.91 0 0 0-1.097.567 2.03 2.03 0 0 0-.597.896c-.128.398-.19.814-.183 1.232v-.007zM45.964 17.105v.994h-6.386v-.994h.197c.254 0 .508-.018.759-.058.22-.03.43-.11.615-.23.183-.132.327-.31.417-.515.116-.283.17-.587.157-.891V8.026a1.908 1.908 0 0 0-.157-.838 1.206 1.206 0 0 0-.428-.496c-.188-.119-.4-.198-.62-.23a4.642 4.642 0 0 0-.748-.058h-.07V5.4h3.84l.313 1.92h.116c.212-.395.475-.761.782-1.09.252-.264.546-.487.87-.66.306-.157.635-.266.975-.322.358-.056.72-.083 1.083-.079a4.82 4.82 0 0 1 1.675.273c.479.173.908.459 1.253.833.367.415.637.907.789 1.44.194.68.287 1.385.273 2.093v5.598c-.01.303.035.605.134.89.075.204.206.383.377.516.173.12.372.2.581.23.242.04.487.06.732.058h.08v.995h-4.142V9.923c.006-.465-.04-.93-.14-1.385a2.728 2.728 0 0 0-.455-1.01 1.923 1.923 0 0 0-.806-.63 3.089 3.089 0 0 0-1.208-.206 2.73 2.73 0 0 0-1.363.312 2.48 2.48 0 0 0-.889.842 3.686 3.686 0 0 0-.481 1.226 7.11 7.11 0 0 0-.146 1.458v4.996c-.011.288.043.574.157.838.092.197.24.364.424.48.19.112.401.185.62.214.248.036.498.054.748.054l.072-.007zM66.727 5.896c0 .163-.025.325-.076.48a1.053 1.053 0 0 1-.62.658c-.18.07-.37.103-.563.1 0-.094-.012-.187-.035-.278a.763.763 0 0 0-.122-.26.634.634 0 0 0-.232-.197.886.886 0 0 0-.393-.076 1.989 1.989 0 0 0-.547.07c-.168.052-.328.13-.474.23.286.35.515.744.678 1.165a5.348 5.348 0 0 1 0 3.319 3.534 3.534 0 0 1-.794 1.29 3.619 3.619 0 0 1-1.333.85 5.293 5.293 0 0 1-1.884.306h-.312l-.348-.011a2.14 2.14 0 0 1-.324-.024l-.243-.03c-.151.076-.298.16-.44.254a1.922 1.922 0 0 0-.365.312c-.105.116-.19.248-.25.392-.063.155-.095.32-.093.487a.854.854 0 0 0 .111.462.754.754 0 0 0 .308.272c.146.07.303.112.463.127.195.02.39.03.586.03h2.673a5.396 5.396 0 0 1 1.81.265c.454.152.868.403 1.213.734.318.313.556.698.694 1.122.147.458.22.936.215 1.417a4.357 4.357 0 0 1-.377 1.846 3.566 3.566 0 0 1-1.157 1.384 5.75 5.75 0 0 1-1.967.884c-.917.222-1.858.327-2.801.312-1.656 0-2.89-.308-3.703-.923a2.997 2.997 0 0 1-1.23-2.539c-.009-.417.074-.832.244-1.214.155-.338.378-.64.655-.89.28-.25.599-.454.944-.603.36-.155.738-.267 1.125-.334a2.316 2.316 0 0 1-.475-.277 2.119 2.119 0 0 1-.72-.972 1.98 1.98 0 0 1-.115-.692c-.011-.436.119-.864.37-1.22.324-.41.726-.75 1.183-1.002a3.054 3.054 0 0 1-.91-.573 3.5 3.5 0 0 1-.673-.833 4.066 4.066 0 0 1-.417-1.024 4.513 4.513 0 0 1-.146-1.154c-.01-.627.084-1.25.278-1.846a3.503 3.503 0 0 1 2.227-2.244 5.786 5.786 0 0 1 1.96-.3 5.615 5.615 0 0 1 1.618.238c.219.067.433.15.639.25.166.075.321.172.463.288.115-.123.25-.26.405-.41.16-.156.336-.295.523-.416.198-.13.41-.237.632-.319.235-.086.485-.129.736-.127.21-.004.42.03.62.1.162.057.31.148.435.265.115.11.204.244.262.392.054.157.077.322.069.487zM56.705 20.181a3.28 3.28 0 0 0 .14.971c.09.296.258.562.485.771.271.238.592.412.94.51.487.135.992.198 1.497.185a8.625 8.625 0 0 0 2.107-.215c.475-.106.923-.31 1.316-.595.312-.232.553-.546.695-.907.135-.37.201-.76.197-1.154.01-.306-.044-.611-.158-.895a1.26 1.26 0 0 0-.463-.557 2.013 2.013 0 0 0-.759-.283 5.982 5.982 0 0 0-1.044-.081h-2.342c-.324 0-.648.029-.967.087a2.219 2.219 0 0 0-.836.33 1.727 1.727 0 0 0-.586.693 2.56 2.56 0 0 0-.222 1.14zm1.389-10.699c0 1.011.168 1.751.505 2.22.336.47.887.705 1.652.706.336.01.67-.049.981-.173.264-.113.491-.298.655-.533.187-.278.311-.593.366-.923.08-.44.117-.888.111-1.336 0-1.065-.163-1.85-.488-2.358-.326-.508-.875-.763-1.648-.764-.772 0-1.319.26-1.641.78-.323.52-.487 1.314-.493 2.381z"/>
        <path fill="#F45922" d="M67.632 17.105c.254 0 .508-.018.76-.058.219-.03.43-.11.615-.23.183-.132.327-.31.416-.515.116-.283.17-.587.158-.891V2.718a1.908 1.908 0 0 0-.158-.837A1.206 1.206 0 0 0 69 1.385c-.188-.122-.4-.2-.62-.231a5.141 5.141 0 0 0-.748-.053h-.3v-1h4.49v15.303a2.2 2.2 0 0 0 .15.89c.087.208.231.387.416.515.188.121.4.2.62.231.252.04.506.059.76.058h.296v.994h-6.733v-.994l.301.007zM81.204 18.33a5.894 5.894 0 0 1-2.314-.434 4.582 4.582 0 0 1-1.734-1.267 5.764 5.764 0 0 1-1.085-2.042 9.22 9.22 0 0 1-.378-2.746c0-2.213.456-3.878 1.368-4.996.912-1.119 2.212-1.677 3.9-1.676a5.63 5.63 0 0 1 2.065.358c.596.229 1.13.596 1.555 1.07.448.515.783 1.118.981 1.77.242.797.357 1.626.343 2.458v1.087h-7.906c.001.75.09 1.497.261 2.227.13.551.366 1.072.695 1.533.28.386.659.691 1.097.883.474.198.984.294 1.497.284.386.003.77-.043 1.143-.138.333-.085.654-.209.956-.37.273-.145.528-.321.76-.526.206-.18.388-.389.539-.618a.74.74 0 0 1 .308.288c.1.156.15.337.145.522-.011.275-.1.54-.254.768a2.559 2.559 0 0 1-.778.757 4.821 4.821 0 0 1-1.305.58 6.522 6.522 0 0 1-1.859.228zm-.29-11.89a2.302 2.302 0 0 0-2.036 1.072c-.475.713-.755 1.756-.84 3.129h5.465a9.71 9.71 0 0 0-.14-1.713 4.41 4.41 0 0 0-.44-1.329 2.213 2.213 0 0 0-.793-.856 2.287 2.287 0 0 0-1.215-.302zM92.085 18.33a7.706 7.706 0 0 1-1.62-.157 3.856 3.856 0 0 1-1.236-.473 2.327 2.327 0 0 1-.79-.787 2.1 2.1 0 0 1-.277-1.094 1.786 1.786 0 0 1 .157-.791c.09-.193.22-.365.382-.503.143-.12.31-.209.488-.261.15-.047.306-.072.463-.076-.003.393.04.784.127 1.167.077.344.223.668.429.953.206.28.479.502.793.649.382.167.797.245 1.213.23.381.007.76-.046 1.125-.156.3-.09.577-.24.817-.439.22-.189.392-.426.505-.692.117-.276.177-.573.173-.872a1.952 1.952 0 0 0-.134-.757 1.598 1.598 0 0 0-.463-.596 4.795 4.795 0 0 0-.898-.567c-.38-.193-.855-.413-1.426-.66-.617-.27-1.148-.53-1.594-.78a5.017 5.017 0 0 1-1.12-.815 2.898 2.898 0 0 1-.662-1.001 3.65 3.65 0 0 1-.232-1.337c0-.491.117-.976.34-1.414.214-.418.526-.778.91-1.048a4.339 4.339 0 0 1 1.414-.641 7.107 7.107 0 0 1 1.833-.231 5.823 5.823 0 0 1 1.498.173c.386.093.754.25 1.09.461.273.175.5.412.662.693.148.254.227.543.231.837.018.404-.153.794-.463 1.055a1.88 1.88 0 0 1-1.27.388c0-.794-.165-1.41-.493-1.846-.329-.437-.845-.657-1.549-.66-.349-.008-.697.039-1.032.138a1.853 1.853 0 0 0-.694.392c-.18.167-.317.373-.4.603-.088.245-.131.503-.128.763a1.75 1.75 0 0 0 .162.78c.124.239.3.446.516.607.287.214.598.395.926.538.375.174.825.369 1.352.584.555.226 1.096.485 1.62.775a4.86 4.86 0 0 1 1.108.833c.284.291.503.638.644 1.018.146.42.216.862.208 1.306a3.683 3.683 0 0 1-.336 1.616c-.22.454-.547.85-.95 1.153-.444.326-.946.56-1.48.693a7.427 7.427 0 0 1-1.94.249zM110.216 11.725c0 2.228-.473 3.886-1.42 4.973-.948 1.088-2.337 1.632-4.167 1.632a6.22 6.22 0 0 1-2.314-.404 4.423 4.423 0 0 1-1.734-1.225 5.56 5.56 0 0 1-1.09-2.066 10.061 10.061 0 0 1-.377-2.91c0-2.212.47-3.858 1.41-4.938.939-1.08 2.328-1.619 4.165-1.615a6.3 6.3 0 0 1 2.315.399 4.398 4.398 0 0 1 1.734 1.214 5.51 5.51 0 0 1 1.09 2.047c.271.94.402 1.915.388 2.893zm-8.795 0c-.008.778.05 1.556.174 2.324.088.59.278 1.159.562 1.683.236.427.585.782 1.01 1.024a3.06 3.06 0 0 0 1.513.346 3.016 3.016 0 0 0 1.51-.346c.42-.243.766-.597.997-1.024.28-.525.466-1.094.55-1.683.12-.769.177-1.546.17-2.324.008-.772-.05-1.544-.174-2.307a5.067 5.067 0 0 0-.558-1.66 2.542 2.542 0 0 0-1.004-1.001 3.146 3.146 0 0 0-1.514-.335 3.114 3.114 0 0 0-1.509.335c-.42.234-.766.581-.998 1.001a5.067 5.067 0 0 0-.543 1.655 13.576 13.576 0 0 0-.183 2.312h-.003zM118.581 17.105v.994h-6.393v-.994h.197c.254 0 .508-.018.76-.058.22-.03.43-.11.615-.23.183-.132.327-.31.417-.515.115-.283.169-.587.157-.891V8.026a1.908 1.908 0 0 0-.157-.838 1.206 1.206 0 0 0-.422-.496c-.188-.119-.4-.198-.62-.23a4.642 4.642 0 0 0-.748-.058h-.069V5.4h3.84l.312 1.92h.116c.212-.395.475-.761.782-1.09.253-.264.547-.487.87-.66.306-.157.635-.266.975-.322.359-.06.722-.089 1.085-.088a4.82 4.82 0 0 1 1.676.28c.479.172.908.458 1.252.832.368.416.637.908.79 1.44.194.68.286 1.386.273 2.093v5.599c-.01.302.035.604.134.89.075.204.205.382.377.515.173.122.372.2.581.231.242.04.486.06.731.058h.081v.994h-4.145V9.923c.007-.465-.04-.93-.139-1.385a2.728 2.728 0 0 0-.446-1.017 1.923 1.923 0 0 0-.806-.63 3.089 3.089 0 0 0-1.229-.199 2.73 2.73 0 0 0-1.363.312 2.48 2.48 0 0 0-.877.842 3.686 3.686 0 0 0-.482 1.226 7.11 7.11 0 0 0-.145 1.458v4.996c-.012.288.042.574.157.838.091.197.239.364.423.48.19.112.402.185.62.214.248.036.498.054.748.054l.072-.007zM127.466 17.105c.255 0 .509-.018.76-.058.22-.03.43-.11.615-.23.183-.132.327-.31.417-.515.116-.283.17-.587.157-.891V2.718a1.908 1.908 0 0 0-.157-.837 1.206 1.206 0 0 0-.424-.496 1.533 1.533 0 0 0-.61-.231 5.141 5.141 0 0 0-.748-.053h-.301v-1h4.49v15.303a2.2 2.2 0 0 0 .15.89c.088.208.232.387.417.515.188.121.4.2.62.231.251.04.505.059.76.058h.3v.994h-6.749v-.994l.303.007zM135.074 17.105c.25 0 .5-.018.748-.053.219-.03.43-.103.62-.215.185-.116.332-.282.424-.48.115-.264.168-.55.157-.838V8.015a1.908 1.908 0 0 0-.157-.838 1.206 1.206 0 0 0-.422-.485c-.188-.119-.4-.198-.62-.23a4.642 4.642 0 0 0-.747-.058h-.07V5.4h4.245v10.004c-.012.305.042.608.157.89.09.206.234.384.417.515.187.122.399.201.62.231.25.04.502.059.755.058h.312v.994h-6.751v-.994l.312.007zm1.62-15.545c-.006-.235.03-.47.105-.692.058-.175.157-.333.289-.462.12-.114.268-.197.428-.242.174-.048.354-.071.535-.07.176 0 .352.023.523.07.159.044.305.127.423.242.13.131.228.289.29.462.146.45.146.934 0 1.384-.062.173-.16.33-.29.462-.119.115-.264.2-.423.25-.17.05-.346.076-.523.075a1.803 1.803 0 0 1-.535-.076 1.093 1.093 0 0 1-.428-.25 1.167 1.167 0 0 1-.29-.46 1.989 1.989 0 0 1-.11-.693h.006zM148.869 17.105v.994h-6.393v-.994h.197c.254 0 .508-.018.759-.058.22-.03.43-.11.616-.23.182-.132.326-.31.416-.515.116-.283.17-.587.158-.891V8.026a1.908 1.908 0 0 0-.158-.838 1.206 1.206 0 0 0-.421-.496c-.188-.119-.4-.198-.62-.23a4.642 4.642 0 0 0-.748-.058h-.07V5.4h3.84l.313 1.92h.116c.215-.396.48-.762.791-1.09.253-.264.547-.487.87-.66.306-.157.635-.266.975-.322.358-.06.722-.089 1.085-.088a4.82 4.82 0 0 1 1.676.272c.478.174.908.46 1.252.833.367.416.637.908.79 1.44.194.68.286 1.386.272 2.093v5.599c-.01.303.035.605.135.89.074.204.205.382.377.515.173.122.372.2.58.231.243.04.487.06.732.058h.081v.994h-4.154V9.923c.006-.465-.04-.93-.14-1.385a2.728 2.728 0 0 0-.446-1.017 1.923 1.923 0 0 0-.805-.63 3.089 3.089 0 0 0-1.218-.215 2.73 2.73 0 0 0-1.368.32 2.48 2.48 0 0 0-.884.85 3.686 3.686 0 0 0-.481 1.226 7.11 7.11 0 0 0-.146 1.458v4.996c-.011.288.042.574.157.838.093.199.242.367.429.482.19.113.4.186.62.215.247.036.497.053.747.053l.068-.01zM163.96 18.33a5.894 5.894 0 0 1-2.315-.434 4.582 4.582 0 0 1-1.734-1.267 5.764 5.764 0 0 1-1.085-2.042 9.22 9.22 0 0 1-.378-2.746c0-2.213.456-3.878 1.368-4.996.912-1.119 2.211-1.678 3.898-1.678a5.63 5.63 0 0 1 2.064.358 4.025 4.025 0 0 1 1.56 1.073c.449.514.783 1.117.982 1.77.24.796.353 1.624.338 2.455v1.087h-7.911c.001.75.09 1.497.261 2.227.13.55.366 1.071.695 1.532.28.387.659.692 1.097.884.474.197.984.294 1.497.284.386.003.77-.043 1.143-.139.333-.084.654-.208.956-.369.273-.145.528-.322.76-.526.206-.18.388-.389.539-.618a.74.74 0 0 1 .308.288c.1.155.15.337.145.522-.011.274-.1.54-.254.768a2.559 2.559 0 0 1-.778.757 4.821 4.821 0 0 1-1.305.58 6.522 6.522 0 0 1-1.852.23zm-.29-11.89a2.302 2.302 0 0 0-2.037 1.072c-.475.713-.755 1.756-.84 3.129h5.464a9.71 9.71 0 0 0-.138-1.713 4.41 4.41 0 0 0-.44-1.329 2.213 2.213 0 0 0-.794-.856 2.287 2.287 0 0 0-1.215-.302z"/>
    </g>
</svg>
