<svg xmlns="http://www.w3.org/2000/svg" width="32" height="32" viewBox="0 0 32 32">
    <g fill="none" fill-rule="nonzero">
        <path fill="#0077B5" d="M0 16C0 7.163 7.163 0 16 0s16 7.163 16 16-7.163 16-16 16S0 24.837 0 16z"/>
        <path fill="#FFF" d="M11.45 11.87v10.796H7.878V11.871h3.572zm.235-3.339c0 1.037-.775 1.866-2.02 1.866H9.64c-1.199 0-1.974-.83-1.974-1.866 0-1.058.799-1.864 2.02-1.864 1.223 0 1.975.806 1.998 1.864zm12.648 7.946v6.19h-3.572V16.89c0-1.45-.517-2.44-1.81-2.44-.987 0-1.575.666-1.833 1.311-.095.231-.118.553-.118.876v6.029h-3.572s.047-9.783 0-10.796H17v1.53c.474-.736 1.324-1.784 3.22-1.784 2.351 0 4.113 1.544 4.113 4.86z"/>
    </g>
</svg>
