<svg xmlns="http://www.w3.org/2000/svg" width="98" height="24" viewBox="0 0 98 24">
    <g fill="none" fill-rule="nonzero">
        <path fill="#353535" d="M6.982 18.1H.112v-.995H.18c.255 0 .51-.018.76-.058.221-.03.432-.11.618-.23.183-.132.327-.31.417-.515.116-.283.17-.587.158-.891V8.026a1.905 1.905 0 0 0-.158-.838 1.206 1.206 0 0 0-.422-.496 1.603 1.603 0 0 0-.626-.23 4.662 4.662 0 0 0-.75-.058H.11V5.4h3.663l.463 2.347h.116c.155-.355.314-.69.476-1.002a3.3 3.3 0 0 1 .598-.821c.25-.244.549-.434.877-.556a3.67 3.67 0 0 1 1.313-.203c.868 0 1.512.153 1.934.461.416.288.655.768.634 1.272.003.236-.039.471-.123.692a1.33 1.33 0 0 1-.39.538 1.86 1.86 0 0 1-.696.346c-.333.088-.678.13-1.023.122 0-.655-.092-1.128-.278-1.417-.186-.289-.511-.434-.977-.434a1.33 1.33 0 0 0-.79.25 2.338 2.338 0 0 0-.61.66 4.338 4.338 0 0 0-.441.941c-.12.358-.218.723-.29 1.094-.073.37-.126.742-.158 1.117-.03.37-.046.706-.046 1.006v3.725c-.012.287.042.574.157.837.092.198.24.365.425.48.19.113.402.186.622.215.248.036.498.054.749.053h.663l.005.976zM23.084 15.52c-.011.287.042.573.158.837.088.2.233.37.417.49.19.112.402.185.622.214.248.036.498.053.749.053h.07v.994h-3.772l-.313-1.92h-.116a4.31 4.31 0 0 1-.796 1.087c-.53.52-1.21.862-1.946.979-.369.059-.742.088-1.115.088-.57.01-1.137-.08-1.675-.266a2.963 2.963 0 0 1-1.232-.833 3.78 3.78 0 0 1-.76-1.445 7.39 7.39 0 0 1-.263-2.093v-5.69a1.905 1.905 0 0 0-.157-.838 1.207 1.207 0 0 0-.43-.485c-.188-.119-.4-.198-.621-.23a4.662 4.662 0 0 0-.75-.058h-.069V5.4h4.266v8.176c-.006.465.036.928.123 1.385.065.362.203.708.405 1.017.191.279.457.497.768.63a2.97 2.97 0 0 0 1.204.215c.467.013.93-.081 1.355-.277.369-.18.687-.448.927-.78.258-.364.441-.775.54-1.21.122-.511.18-1.036.175-1.561V8.107a2.164 2.164 0 0 0-.158-.895 1.238 1.238 0 0 0-.417-.522 1.503 1.503 0 0 0-.617-.23 4.735 4.735 0 0 0-.761-.058h-.07V5.4h4.254l.005 10.12zM32.035 6.348a2.733 2.733 0 0 0-1.111.192c-.267.114-.497.3-.663.538a2.038 2.038 0 0 0-.32.821c-.057.34-.084.685-.082 1.03a2.779 2.779 0 0 1-1.505-.335c-.345-.223-.517-.608-.517-1.154a1.63 1.63 0 0 1 .336-1.04c.25-.302.568-.539.928-.693a5.27 5.27 0 0 1 1.366-.4c.55-.086 1.106-.129 1.663-.126a7.547 7.547 0 0 1 1.907.214c.502.12.968.358 1.359.693.378.345.66.781.819 1.267.197.618.29 1.264.273 1.913v6.14c-.006.277.022.552.082.822.041.192.129.37.255.522a.94.94 0 0 0 .464.276c.221.058.45.085.68.081h.069v.995h-3.224l-.371-2.036h-.198c-.247.333-.487.64-.72.924a4.19 4.19 0 0 1-.769.717 3.34 3.34 0 0 1-.946.462c-.413.12-.843.177-1.273.168-.5.003-.997-.075-1.471-.23a3.1 3.1 0 0 1-1.174-.693 3.213 3.213 0 0 1-.772-1.18 4.594 4.594 0 0 1-.278-1.681c0-1.257.449-2.19 1.347-2.8.899-.609 2.259-.94 4.08-.994l1.976-.07V9.264a9.159 9.159 0 0 0-.07-1.175 2.373 2.373 0 0 0-.3-.923 1.558 1.558 0 0 0-.669-.602 2.677 2.677 0 0 0-1.171-.215zm-2.883 8.308c0 .74.154 1.293.464 1.66.309.366.795.549 1.459.549a3.54 3.54 0 0 0 1.308-.231c.377-.145.719-.37 1-.66.283-.298.498-.653.633-1.04.156-.439.234-.9.232-1.365v-1.92l-1.524.07a7.18 7.18 0 0 0-1.691.249 2.919 2.919 0 0 0-1.1.567 2.03 2.03 0 0 0-.598.896c-.128.398-.19.814-.183 1.232v-.007zM46.124 17.105v.994H39.72v-.994h.197c.254 0 .509-.018.76-.058.22-.03.432-.11.618-.23.183-.132.327-.31.417-.515.116-.283.17-.587.158-.891V8.026a1.905 1.905 0 0 0-.158-.838 1.206 1.206 0 0 0-.424-.496c-.19-.119-.4-.198-.622-.23a4.662 4.662 0 0 0-.75-.058h-.069V5.4h3.848l.313 1.92h.116c.214-.395.478-.762.787-1.09a3.42 3.42 0 0 1 .872-.66c.306-.157.636-.266.976-.322a6.57 6.57 0 0 1 1.088-.088 4.84 4.84 0 0 1 1.68.272c.48.174.91.46 1.254.833.369.416.639.908.791 1.44.195.68.288 1.386.274 2.093v5.599c-.01.303.035.605.135.89.075.204.206.382.378.515.173.122.372.2.582.231.242.04.487.06.733.058h.081v.994h-4.154V9.923c.006-.465-.04-.93-.14-1.385a2.725 2.725 0 0 0-.447-1.017 1.926 1.926 0 0 0-.807-.63 3.101 3.101 0 0 0-1.22-.215 2.742 2.742 0 0 0-1.367.312 2.483 2.483 0 0 0-.89.858 3.681 3.681 0 0 0-.483 1.226c-.099.48-.148.968-.146 1.458v4.996c-.011.288.043.574.158.838.092.197.24.364.424.48.19.112.402.185.622.214.248.036.498.054.75.054l.069-.007zM66.935 5.896c0 .163-.026.325-.077.48a1.056 1.056 0 0 1-.622.658c-.18.07-.37.103-.563.1 0-.094-.012-.187-.035-.278a.762.762 0 0 0-.123-.26.635.635 0 0 0-.232-.197.89.89 0 0 0-.394-.076c-.185-.002-.37.021-.548.07-.169.052-.33.13-.475.23.284.354.51.75.668 1.175a5.337 5.337 0 0 1 0 3.318c-.169.482-.44.922-.796 1.29-.38.375-.838.662-1.343.84a5.315 5.315 0 0 1-1.888.307h-.313l-.348-.011a2.15 2.15 0 0 1-.325-.024l-.243-.03c-.152.076-.3.16-.44.254a1.925 1.925 0 0 0-.367.312c-.105.116-.19.248-.25.392-.064.155-.096.32-.094.487a.853.853 0 0 0 .112.462.755.755 0 0 0 .308.272c.146.07.303.112.464.127.195.02.39.03.587.03h2.698a5.418 5.418 0 0 1 1.813.265c.455.152.87.403 1.216.734.319.313.557.698.696 1.122.147.458.22.936.215 1.417a4.35 4.35 0 0 1-.378 1.846c-.26.552-.66 1.03-1.16 1.384a5.769 5.769 0 0 1-1.971.884 11.16 11.16 0 0 1-2.807.312c-1.659 0-2.896-.308-3.71-.923a2.995 2.995 0 0 1-1.233-2.539c-.009-.417.074-.832.244-1.214a2.75 2.75 0 0 1 .656-.89c.281-.25.6-.454.947-.603.361-.155.74-.267 1.127-.334a2.322 2.322 0 0 1-.475-.277 2.12 2.12 0 0 1-.722-.972 1.975 1.975 0 0 1-.116-.692c-.01-.436.12-.864.371-1.22a3.92 3.92 0 0 1 1.186-1.002 3.062 3.062 0 0 1-.912-.573 3.502 3.502 0 0 1-.675-.833 4.061 4.061 0 0 1-.417-1.024 4.504 4.504 0 0 1-.147-1.154c-.01-.627.084-1.25.279-1.846a3.507 3.507 0 0 1 2.231-2.244 5.81 5.81 0 0 1 1.965-.3 5.64 5.64 0 0 1 1.621.238c.22.067.434.15.64.25.167.075.323.172.464.288.116-.123.251-.26.406-.41.161-.156.337-.295.524-.416.199-.13.411-.237.634-.319.236-.086.486-.129.737-.127.212-.004.422.03.622.1.162.057.31.148.436.265.115.11.205.244.262.392.054.157.078.322.07.487zM56.89 20.181c-.003.329.044.656.14.971.092.296.263.562.493.771.272.238.594.412.942.51.488.135.994.198 1.5.185a8.662 8.662 0 0 0 2.111-.215c.477-.106.926-.31 1.32-.595.313-.232.554-.546.696-.907.135-.37.202-.76.197-1.154.01-.306-.043-.611-.157-.895a1.262 1.262 0 0 0-.464-.557 2.02 2.02 0 0 0-.761-.283 6.007 6.007 0 0 0-1.046-.081h-2.357c-.325 0-.65.029-.97.087a2.226 2.226 0 0 0-.837.33 1.728 1.728 0 0 0-.587.693c-.16.358-.237.748-.222 1.14h.002zm1.392-10.699c0 1.011.168 1.751.505 2.22.338.47.89.705 1.657.706.336.01.67-.049.983-.173.264-.113.492-.298.656-.533a2.35 2.35 0 0 0 .367-.923c.08-.44.117-.888.111-1.336 0-1.065-.163-1.85-.49-2.358-.325-.508-.876-.763-1.65-.764-.774 0-1.322.26-1.645.78-.323.52-.491 1.314-.504 2.381h.01z"/>
        <path fill="#F29F05" d="M67.842 17.105c.254 0 .509-.018.76-.058.22-.03.431-.11.617-.23.184-.132.328-.31.418-.515.116-.283.17-.587.158-.891V2.718a1.905 1.905 0 0 0-.158-.837 1.206 1.206 0 0 0-.425-.496c-.187-.122-.4-.2-.621-.231a5.164 5.164 0 0 0-.75-.053h-.301v-1h4.5v15.303c-.012.304.04.607.15.89.088.208.233.387.418.515.188.121.4.2.622.231.251.04.506.059.76.058h.302v.994h-6.754v-.994l.304.007zM81.443 18.33a5.918 5.918 0 0 1-2.32-.434 4.591 4.591 0 0 1-1.737-1.267 5.76 5.76 0 0 1-1.087-2.042 9.2 9.2 0 0 1-.379-2.746c0-2.213.457-3.878 1.371-4.996.914-1.119 2.216-1.678 3.906-1.678a5.653 5.653 0 0 1 2.074.36 4.034 4.034 0 0 1 1.559 1.07 4.84 4.84 0 0 1 .983 1.77c.242.797.358 1.626.343 2.458v1.087h-7.935c.002.75.09 1.497.263 2.227.13.551.366 1.072.695 1.533.281.386.66.691 1.1.883.475.198.986.294 1.5.284a4.5 4.5 0 0 0 1.146-.138c.333-.085.655-.209.958-.37a3.96 3.96 0 0 0 .761-.526c.207-.18.39-.389.54-.618a.74.74 0 0 1 .31.288c.1.156.15.337.145.522-.011.275-.1.54-.255.768a2.562 2.562 0 0 1-.78.757 4.837 4.837 0 0 1-1.307.58 6.55 6.55 0 0 1-1.854.228zm-.29-11.89a2.309 2.309 0 0 0-2.04 1.072c-.476.712-.757 1.754-.845 3.126h5.467a9.69 9.69 0 0 0-.14-1.712 4.404 4.404 0 0 0-.44-1.33 2.215 2.215 0 0 0-.796-.855 2.296 2.296 0 0 0-1.208-.3h.002zM92.347 18.33a7.739 7.739 0 0 1-1.623-.157 3.87 3.87 0 0 1-1.239-.473 2.33 2.33 0 0 1-.79-.787 2.096 2.096 0 0 1-.28-1.094 1.783 1.783 0 0 1 .158-.791c.09-.193.22-.365.383-.503.144-.12.31-.209.49-.261.15-.047.306-.072.463-.076-.002.393.04.784.128 1.167.077.344.223.668.43.953.206.28.48.502.795.649.382.167.798.245 1.215.23.382.007.762-.046 1.127-.156.3-.09.579-.24.82-.439.22-.189.392-.426.505-.692.118-.276.177-.573.174-.872a1.948 1.948 0 0 0-.135-.757 1.598 1.598 0 0 0-.464-.596 4.807 4.807 0 0 0-.9-.567 27.17 27.17 0 0 0-1.428-.66c-.619-.27-1.152-.53-1.598-.78a5.028 5.028 0 0 1-1.123-.815 2.897 2.897 0 0 1-.664-1.001 3.643 3.643 0 0 1-.231-1.337c-.01-.496.1-.987.32-1.433.213-.417.526-.777.911-1.047.43-.297.91-.515 1.417-.642a7.137 7.137 0 0 1 1.837-.23c.506-.008 1.01.05 1.501.172.387.094.756.25 1.093.462.274.174.501.412.663.692.148.255.228.544.232.838a1.3 1.3 0 0 1-.448 1.036c-.362.28-.815.417-1.273.388 0-.794-.165-1.41-.494-1.846-.33-.437-.842-.646-1.538-.626-.35-.007-.699.04-1.034.139a1.858 1.858 0 0 0-.696.392c-.18.166-.318.373-.402.602-.087.245-.13.504-.127.764-.007.27.049.536.162.78.125.239.301.446.517.607.288.214.6.395.928.538.376.174.828.368 1.355.584.556.226 1.098.485 1.624.775.408.223.782.504 1.11.833.285.29.504.637.645 1.018.147.42.217.862.21 1.306a3.676 3.676 0 0 1-.337 1.615c-.222.455-.548.85-.953 1.154-.444.325-.948.56-1.483.692a7.458 7.458 0 0 1-1.953.252z"/>
    </g>
</svg>
